<?xml version="1.0" standalone="no"?>
<!DOCTYPE svg PUBLIC "-//W3C//DTD SVG 20010904//EN"
 "http://www.w3.org/TR/2001/REC-SVG-20010904/DTD/svg10.dtd">
<svg version="1.0" xmlns="http://www.w3.org/2000/svg"
 width="500.000000pt" height="500.000000pt" viewBox="0 0 500.000000 500.000000"
 preserveAspectRatio="xMidYMid meet">
<metadata>
Created by potrace 1.14, written by Peter Selinger 2001-2017
</metadata>
<g transform="translate(0.000000,500.000000) scale(0.100000,-0.100000)"
fill="#000000" stroke="none">
<path d="M2387 4844 c-1 -1 -41 -5 -88 -8 -47 -4 -95 -8 -105 -10 -10 -2 -39
-7 -64 -11 -25 -4 -54 -9 -65 -11 -11 -2 -33 -7 -50 -10 -100 -18 -345 -95
-445 -140 -136 -62 -361 -188 -368 -206 -2 -4 -8 -8 -14 -8 -11 0 -144 -97
-198 -144 -83 -74 -270 -267 -321 -331 -205 -261 -341 -528 -428 -838 -16 -57
-32 -120 -35 -138 -3 -19 -12 -72 -21 -119 -36 -199 -38 -517 -5 -710 5 -30
12 -71 15 -90 18 -108 84 -339 122 -427 9 -21 17 -40 18 -43 11 -37 111 -237
151 -303 110 -178 214 -309 358 -452 131 -130 146 -143 268 -233 279 -207 646
-366 958 -417 19 -3 60 -10 90 -15 77 -13 227 -24 345 -24 613 0 1196 239
1638 673 454 447 702 1043 701 1686 -2 720 -343 1404 -924 1850 -231 178 -524
322 -814 400 -105 28 -136 34 -296 60 -81 13 -414 28 -423 19z"/>
</g>
</svg>
